<?xml version="1.0" encoding="utf-8"?><svg xmlns="http://www.w3.org/2000/svg" xmlns:xlink="http://www.w3.org/1999/xlink" width="1366" height="657" preserveAspectRatio="xMidYMid" viewBox="0 0 1366 657" style="z-index:1;margin-right:-2px;display:block;background-repeat-y:initial;background-repeat-x:initial;background-color:rgb(255, 255, 255);animation-play-state:paused" ><g transform="translate(683,328.5) scale(1,1) translate(-683,-328.5)" style="transform:matrix(1, 0, 0, 1, 0, 0);animation-play-state:paused" ><linearGradient id="lg-0.8743409124216448" x1="0" x2="1" y1="0" y2="0" style="animation-play-state:paused" ><stop stop-color="#ff00ff" offset="0" style="animation-play-state:paused" ></stop>

  
<stop stop-color="#00ffff" offset="1" style="animation-play-state:paused" ></stop></linearGradient>
<path d="M 0 0 L 0 637.18 Q 136.6 592.879 273.2 556.368 T 546.4 448.979 T 819.6 471.107 T 1092.8 412.931 T 1366 329.809 L 1366 0 Z" fill="url(#lg-0.8743409124216448)" opacity="0.4" style="opacity:0.4;animation-play-state:paused" ></path>
<path d="M 0 0 L 0 575.719 Q 136.6 528.621 273.2 496.125 T 546.4 467.219 T 819.6 401.504 T 1092.8 402.872 T 1366 295.95 L 1366 0 Z" fill="url(#lg-0.8743409124216448)" opacity="0.4" style="opacity:0.4;animation-play-state:paused" ></path>
<path d="M 0 0 L 0 650.678 Q 136.6 600.435 273.2 555.892 T 546.4 465.749 T 819.6 434.853 T 1092.8 292.288 T 1366 291.781 L 1366 0 Z" fill="url(#lg-0.8743409124216448)" opacity="0.4" style="opacity:0.4;animation-play-state:paused" ></path>
<path d="M 0 0 L 0 571.384 Q 136.6 536.846 273.2 499.409 T 546.4 508.614 T 819.6 401.054 T 1092.8 310.127 T 1366 262.014 L 1366 0 Z" fill="url(#lg-0.8743409124216448)" opacity="0.4" style="opacity:0.4;animation-play-state:paused" ></path>
<path d="M 0 0 L 0 606.385 Q 136.6 546.378 273.2 521.604 T 546.4 450.479 T 819.6 370.995 T 1092.8 283.246 T 1366 279.441 L 1366 0 Z" fill="url(#lg-0.8743409124216448)" opacity="0.4" style="opacity:0.4;animation-play-state:paused" ></path></g></svg>