<?xml version="1.0" encoding="utf-8"?><svg xmlns="http://www.w3.org/2000/svg" xmlns:xlink="http://www.w3.org/1999/xlink" width="1366" height="657" preserveAspectRatio="xMidYMid" viewBox="0 0 1366 657" style="z-index:1;margin-right:-2px;display:block;background-repeat-y:initial;background-repeat-x:initial;background-color:rgb(241, 242, 243);animation-play-state:paused" ><g transform="translate(683,328.5) scale(1,1) translate(-683,-328.5)" style="transform:matrix(1, 0, 0, 1, 0, 0);animation-play-state:paused" ><linearGradient id="lg-0.771019634185248" x1="0" x2="1" y1="0" y2="0" style="animation-play-state:paused" ><stop stop-color="#ffffff" offset="0" style="animation-play-state:paused" ></stop>

  
<stop stop-color="#995b99" offset="1" style="animation-play-state:paused" ></stop></linearGradient>
<path d="M 0 0 L 0 619.426 Q 136.6 539.441 273.2 498.512 T 546.4 467.576 T 819.6 383.804 T 1092.8 361.767 T 1366 241.994 L 1366 0 Z" fill="url(#lg-0.771019634185248)" opacity="0.4" style="opacity:0.4;animation-play-state:paused" ></path>
<path d="M 0 0 L 0 603.065 Q 136.6 560.595 273.2 524.944 T 546.4 460.835 T 819.6 417.651 T 1092.8 308.875 T 1366 307.882 L 1366 0 Z" fill="url(#lg-0.771019634185248)" opacity="0.4" style="opacity:0.4;animation-play-state:paused" ></path>
<path d="M 0 0 L 0 648.367 Q 136.6 588.834 273.2 555.137 T 546.4 447.033 T 819.6 409.548 T 1092.8 331.059 T 1366 257.355 L 1366 0 Z" fill="url(#lg-0.771019634185248)" opacity="0.4" style="opacity:0.4;animation-play-state:paused" ></path>
<path d="M 0 0 L 0 643.768 Q 136.6 531.7 273.2 510.474 T 546.4 507.377 T 819.6 455.438 T 1092.8 358.65 T 1366 313.977 L 1366 0 Z" fill="url(#lg-0.771019634185248)" opacity="0.4" style="opacity:0.4;animation-play-state:paused" ></path>
<path d="M 0 0 L 0 620.493 Q 136.6 573.75 273.2 557.26 T 546.4 461.914 T 819.6 441.756 T 1092.8 307.721 T 1366 297.738 L 1366 0 Z" fill="url(#lg-0.771019634185248)" opacity="0.4" style="opacity:0.4;animation-play-state:paused" ></path></g></svg>